<svg role="img" viewBox="0 0 120 28" xmlns="http://www.w3.org/2000/svg" aria-label="Canon">
  <path fill="#FFFFFF" d="M11.2 2C5.6 2 1 6.6 1 12.2S5.6 22.4 11.2 22.4 21.4 17.8 21.4 12.2 16.8 2 11.2 2zm0 3.2c3.9 0 7 3.1 7 7s-3.1 7-7 7-7-3.1-7-7 3.1-7 7-7zM28.6 5.4h-7.8L18 8.2v11.2l2.8 2.4h7.8c4.5 0 8.2-3.7 8.2-8.2s-3.7-8.2-8.2-8.2zm-1 3c2.9 0 5.2 2.3 5.2 5.2s-2.3 5.2-5.2 5.2h-5.6V8.4h5.6zM41.2 5.4h2.8l7 10.2V5.4H54v16.4h-2.8l-7-10.4v10.4h-2.8V5.4zm17.8 0h8.6c3.2 0 5.8 2.6 5.8 5.8s-2.6 5.8-5.8 5.8h-5.8v4.8h-2.8V5.4zm2.8 2.8v6h5.8c1.8 0 3-1.2 3-3s-1.2-3-3-3h-5.8zM78 5.4h2.8v13.6H92v2.8H78V5.4zm16.2 0h8.2c3.4 0 6.2 2.8 6.2 6.2 0 2.4-1.4 4.6-3.6 5.6l4.2 4.6h-3.4l-3.8-4.2h-4.8v4.2h-2.8V5.4zm2.8 2.8v5.4h5.4c1.8 0 3.2-1.4 3.2-3.2s-1.4-3.2-3.2-3.2h-5.4z"/>
</svg>
