<svg role="img" viewBox="0 0 120 28" xmlns="http://www.w3.org/2000/svg" aria-label="D-Link">
  <path fill="#FFFFFF" d="M8 2C3.6 2 0 5.6 0 10v8c0 4.4 3.6 8 8 8h12V2H8zm2 3.2h8.8v17.6H10c-2.6 0-4.8-2.2-4.8-4.8V10c0-2.6 2.2-4.8 4.8-4.8zM28 2h12c4.4 0 8 3.6 8 8v8c0 4.4-3.6 8-8 8H28V2zm3.2 3.2v17.6H40c2.6 0 4.8-2.2 4.8-4.8V10c0-2.6-2.2-4.8-4.8-4.8H31.2zM56 2h14.4c4 0 7.2 3.2 7.2 7.2 0 2.8-1.6 5.2-4 6.4l5.2 5.6h-4.4l-4.8-5.2H59.2v5.2H56V2zm3.2 3.2v6.4h6.4c1.6 0 2.8-1.2 2.8-2.8s-1.2-2.8-2.8-2.8h-6.4zM84 2h12.8c3.6 0 6.4 2.8 6.4 6.4S100.4 15 96.8 15H87.2v5.8H84V2zm3.2 3.2v6.8h9.6c1.8 0 3.2-1.4 3.2-3.2s-1.4-3.2-3.2-3.2H87.2z"/>
</svg>
